<?xml version="1.0" encoding="UTF-8" standalone="no"?>
<svg
   xml:space="preserve"
   width="1600"
   height="900"
   viewBox="0 0 423.33333 238.12875"
   version="1.1"
   id="svg118"
   sodipodi:docname="zed-news-podcast-logo.src.svg"
   inkscape:export-filename="/home/victor/Documents/Torchbox/meetings/tech_conf/2023/my-talk/slides/assets/zed-news-podcast-logo.src.png"
   inkscape:export-xdpi="153.60001"
   inkscape:export-ydpi="153.60001"
   inkscape:version="1.1.2 (0a00cf5339, 2022-02-04)"
   xmlns:inkscape="http://www.inkscape.org/namespaces/inkscape"
   xmlns:sodipodi="http://sodipodi.sourceforge.net/DTD/sodipodi-0.dtd"
   xmlns="http://www.w3.org/2000/svg"
   xmlns:svg="http://www.w3.org/2000/svg"><defs
     id="defs122"><rect
       x="518.43184"
       y="33.61443"
       width="1081.8444"
       height="859.20373"
       id="rect23789" /><rect
       x="512.37833"
       y="374.88131"
       width="16.529823"
       height="242.04645"
       id="rect14237" /></defs><sodipodi:namedview
     id="namedview120"
     pagecolor="#ffffff"
     bordercolor="#666666"
     borderopacity="1.0"
     inkscape:pageshadow="2"
     inkscape:pageopacity="0.0"
     inkscape:pagecheckerboard="0"
     showgrid="false"
     width="1600px"
     inkscape:zoom="0.690625"
     inkscape:cx="881.80995"
     inkscape:cy="741.35747"
     inkscape:window-width="2560"
     inkscape:window-height="1403"
     inkscape:window-x="0"
     inkscape:window-y="0"
     inkscape:window-maximized="1"
     inkscape:current-layer="g231" /><g
     id="g231"
     transform="translate(0.38316295,48.630819)"><text
       xml:space="preserve"
       x="120.50603"
       y="186.54668"
       style="font-weight:700;font-size:132.172px;font-family:'PT Sans';-inkscape-font-specification:'PT Sans Bold';text-align:end;text-anchor:end;fill:#faf3e0;fill-opacity:1;stroke-width:11.0144"
       id="text36116"><tspan
         x="120.50603"
         y="186.54668"
         style="text-align:start;text-anchor:start;fill:#faf3e0;fill-opacity:1;stroke-width:11.0144"
         id="tspan36114">News</tspan></text><text
       xml:space="preserve"
       x="123.08535"
       y="91.131371"
       style="font-weight:700;font-size:198.185px;font-family:'PT Sans';-inkscape-font-specification:'PT Sans Bold';text-align:end;text-anchor:end;fill:#faf3e0;fill-opacity:1;stroke-width:16.5155"
       id="text6"><tspan
         x="123.08535"
         y="91.131371"
         style="text-align:start;text-anchor:start;fill:#faf3e0;fill-opacity:1;stroke-width:16.5155"
         id="tspan2">Zed</tspan></text><g
       transform="matrix(0.27729336,0,0,0.27729336,-51.306686,-66.065209)"
       id="g116"><circle
         cx="439.02701"
         cy="492.254"
         r="254"
         style="fill:#188200;fill-opacity:1"
         id="circle82" /><path
         d="m 502.227,638.254 c 25.6,-88.4 42,-204 42,-238 v -5.2 c -2.4,-54.4 -48.8,-96.4 -103.2,-96.4 h -4 c -54.4,0 -100.4,42 -103.2,96.4 v 5.2 c 0,34 16.4,149.2 42,238 z"
         style="fill:#324a5e"
         id="path84" /><path
         d="M 144.8,406 H 363.2 L 304,299.2 H 204 Z"
         style="fill:#ffd05b"
         transform="translate(185.027,238.254)"
         id="path86" /><path
         d="m 484.227,627.454 c 0,0 -17.6,90 -38.4,118.8 h -10.4 c -11.6,-22.4 -47.2,-92 -41.6,-118.8 0,0 35.6,25.2 90.4,0 z"
         style="fill:#ff7058"
         id="path88" /><path
         d="m 489.827,539.054 c -0.4,-0.4 -0.4,-1.2 -0.8,-1.6 0,0 -0.8,4.4 -6,10.8 -22.4,28 -65.6,28 -88,0 -5.2,-6.4 -6,-10.8 -6,-10.8 -0.4,0.4 -0.4,0.8 -0.8,1.2 2,-3.2 2.8,-6.8 3.2,-10.8 l 1.2,-14.8 3.2,-45.2 h 86.4 l 4.4,60 c 0.4,3.2 1.2,6.4 2.4,9.2 0.4,0.8 0.4,1.6 0.8,2 z"
         style="fill:#f9b54c"
         id="path90" /><path
         d="m 246.4,508 c -4.4,0 -8.4,-0.4 -12.8,-0.8 -70.8,-5.6 -133.2,-40 -176,-92 21.2,-41.2 51.2,-44.8 51.2,-44.8 55.2,-26.4 88.4,-64 90.4,-66.4 l -12,26 23.6,101.6 z M 450,415.2 c -16.8,20.4 -36.8,38.4 -59.2,52.8 -37.6,24 -81.6,38.4 -129.2,40 L 296.8,431.6 320.8,330 308,304 c 2,2.4 36,40 91.2,66.4 0,0 1.2,0 3.2,0.8 8.8,2.4 31.2,11.2 47.6,44 z"
         style="fill:#e6e9ee"
         transform="translate(185.027,238.254)"
         id="path92" /><path
         d="m 211.6,396 c 0,0 21.2,60.4 40,112 -6,0 -12,-0.4 -17.6,-0.8 -15.6,-22.4 -32.8,-45.6 -55.2,-57.6 l 7.2,-36.8 h -36 c 14.8,-66.4 51.6,-111.2 54,-113.2 -1.2,2.4 -19.2,38 7.6,96.4 z m 110.8,16.8 7.2,36.8 c -22.4,12 -39.6,35.2 -55.2,57.6 -4,0.4 -8.4,0.4 -12.4,0.8 h -5.2 c 18.8,-51.6 39.6,-112 39.6,-112 26.8,-58.4 8.8,-94 7.6,-96.4 2.4,2 39.2,46.8 54,113.2 z"
         style="fill:#ffffff"
         transform="translate(185.027,238.254)"
         id="path94" /><path
         d="m 339.2,172.4 c 0,58.4 -38,131.6 -85.2,131.6 -47.2,0 -85.2,-73.2 -85.2,-131.6 0,-58.4 38,-79.6 85.2,-79.6 47.2,0 85.2,21.6 85.2,79.6 z"
         style="fill:#ffd05b"
         transform="translate(185.027,238.254)"
         id="path96" /><path
         d="m 351.2,207.2 c -6,13.2 -16.4,20.8 -23.6,17.2 -7.2,-4 -8,-17.6 -2,-31.2 6,-13.2 16.4,-20.8 23.6,-17.2 6.8,4 7.6,18 2,31.2 z"
         style="fill:#ffd05b"
         transform="translate(185.027,238.254)"
         id="path98" /><path
         d="m 318.8,114 c 0,0 -19.2,39.6 20.4,63.2 l 6.8,-22 -14.8,-43.2 -7.6,-9.2 z"
         style="fill:#324a5e"
         transform="translate(185.027,238.254)"
         id="path100" /><path
         d="m 328,105.2 c 0,0 -10.8,36 -86.8,64.8 -27.6,10.4 -48.4,34.4 -55.2,63.2 -3.2,14 -6,30 -7.2,47.2 L 163.2,229.2 158,148.4 176,103.2 228,92 Z"
         style="fill:#324a5e"
         transform="translate(185.027,238.254)"
         id="path102" /><path
         d="M 270.4,120.4 225.6,99.6 243.2,74.4 302,82 l 8.4,17.6 z m 20.4,226.8 h -66.4 c -1.6,0 -3.2,1.6 -2.8,3.2 v 20.4 c 0,1.6 1.2,3.2 3.2,3.2 h 66 c 1.6,0 3.2,-1.6 3.2,-3.2 l 0.4,-20.4 c -0.4,-1.6 -2,-3.2 -3.6,-3.2 z"
         style="fill:#324a5e"
         transform="translate(185.027,238.254)"
         id="path104" /><path
         d="m 535.027,606.654 -3.6,124.8 c -22,7.2 -45.2,12 -69.2,14 -4.8,0.4 -9.6,0.8 -14.8,0.8 h -17.2 c -4.8,0 -10,-0.4 -14.8,-0.8 -24,-2 -47.2,-6.8 -69.2,-14 l -3.2,-124.8 c 0,-4 2.8,-7.2 6.4,-7.2 h 179.2 c 3.6,0 6.8,3.2 6.4,7.2 z"
         style="fill:#ff7058"
         id="path106" /><path
         d="m 284,374.4 c 0,2.8 -2.4,5.2 -4.8,5.2 -2.8,0 -4.8,-2.4 -4.8,-5.2 0,-2.8 2.4,-5.2 4.8,-5.2 2.8,0 4.8,2.4 4.8,5.2 z m -43.2,0 c 0,2.8 -2,5.2 -4.8,5.2 -2.8,0 -4.8,-2.4 -4.8,-5.2 0,-2.8 2,-5.2 4.8,-5.2 2.8,0 4.8,2.4 4.8,5.2 z"
         style="fill:#f1543f"
         transform="translate(185.027,238.254)"
         id="path108" /><path
         d="m 455.027,497.854 v -3.6 c 63.2,-1.2 66,-47.2 66,-48 h 3.6 c -0.4,1.2 -2.8,50.8 -69.6,51.6 z"
         style="fill:#2b3b4e"
         id="path110" /><path
         d="m 337.6,214.4 c -4.8,0 -8.4,-3.6 -8.4,-8.4 v -17.6 c 0,-4.8 3.6,-8.4 8.4,-8.4 4.8,0 8.4,3.6 8.4,8.4 V 206 c 0,4.8 -3.6,8.4 -8.4,8.4 z M 283.2,262 h -18.8 c -2.8,0 -4.8,-2 -4.8,-4.8 0,-2.8 2,-4.8 4.8,-4.8 h 18.8 c 2.8,0 4.8,2 4.8,4.8 0,2.4 -2.4,4.8 -4.8,4.8 z m 76,-105.2 c 0,0 -12.4,169.6 26,174 0,0 -17.6,43.2 -53.6,2 -1.2,-1.2 -1.6,-2.8 -2,-4.4 V 328 c -5.6,-24 -2.8,-48.8 7.6,-70.8 l 16.4,-34.4 2.4,-47.6 z m -210.4,0 c 0,0 12.4,169.6 -26,174 0,0 17.6,43.2 53.6,2 1.2,-1.2 1.6,-2.8 2,-4.4 V 328 c 5.6,-24 2.8,-48.8 -7.6,-70.8 L 154.4,222.8 152,175.2 Z"
         style="fill:#324a5e"
         transform="translate(185.027,238.254)"
         id="path112" /><path
         d="m 338,290.4 -8.8,-14.8 -24.4,19.2 c 0,0 10.8,29.6 34.8,46.4 l 7.2,-25.6 c -5.6,-7.6 -8.4,-16.4 -8.8,-25.2 z m -168.4,0 8.8,-14.8 25.6,19.2 c 0,0 -12,29.6 -35.6,46.4 l -7.2,-25.6 c 5.6,-7.6 8.4,-16.4 8.4,-25.2 z"
         style="fill:#324a5e"
         transform="translate(185.027,238.254)"
         id="path114" /></g><text
       xml:space="preserve"
       transform="matrix(0.2645875,0,0,0.2645875,-0.38649795,-48.630819)"
       id="text14235"
       style="fill:black;fill-opacity:1;line-height:1.25;stroke:none;font-family:sans-serif;font-style:normal;font-weight:normal;font-size:40px;white-space:pre;shape-inside:url(#rect14237)" /></g></svg>
